{
	"asset":{
		"generator":"Khronos glTF Blender I/O v3.6.27",
		"version":"2.0"
	},
	"extensionsUsed":[
		"KHR_materials_specular",
		"KHR_materials_ior"
	],
	"scene":0,
	"scenes":[
		{
			"name":"Scene",
			"nodes":[
				0
			]
		}
	],
	"nodes":[
		{
			"mesh":0,
			"name":"group1533979519",
			"rotation":[
				0.7071068286895752,
				0,
				0,
				0.7071068286895752
			]
		}
	],
	"materials":[
		{
			"doubleSided":true,
			"extensions":{
				"KHR_materials_specular":{
					"specularColorFactor":[
						0,
						0,
						0
					]
				},
				"KHR_materials_ior":{
					"ior":1.4500000476837158
				}
			},
			"name":"mat7",
			"pbrMetallicRoughness":{
				"baseColorFactor":[
					0.9399999976158142,
					0.3799999952316284,
					0.5699999928474426,
					1
				],
				"metallicFactor":0
			}
		}
	],
	"meshes":[
		{
			"name":"group1533979519",
			"primitives":[
				{
					"attributes":{
						"POSITION":0,
						"NORMAL":1,
						"TEXCOORD_0":2
					},
					"indices":3,
					"material":0
				}
			]
		}
	],
	"accessors":[
		{
			"bufferView":0,
			"componentType":5126,
			"count":22185,
			"max":[
				0.7625303864479065,
				0.8281092047691345,
				1.1390000581741333
			],
			"min":[
				-1.1137750148773193,
				-0.9081143736839294,
				-0.7531890273094177
			],
			"type":"VEC3"
		},
		{
			"bufferView":1,
			"componentType":5126,
			"count":22185,
			"type":"VEC3"
		},
		{
			"bufferView":2,
			"componentType":5126,
			"count":22185,
			"type":"VEC2"
		},
		{
			"bufferView":3,
			"componentType":5123,
			"count":34713,
			"type":"SCALAR"
		}
	],
	"bufferViews":[
		{
			"buffer":0,
			"byteLength":266220,
			"byteOffset":0,
			"target":34962
		},
		{
			"buffer":0,
			"byteLength":266220,
			"byteOffset":266220,
			"target":34962
		},
		{
			"buffer":0,
			"byteLength":177480,
			"byteOffset":532440,
			"target":34962
		},
		{
			"buffer":0,
			"byteLength":69426,
			"byteOffset":709920,
			"target":34963
		}
	],
	"buffers":[
		{
			"byteLength":779348,
			"uri":"data:application/octet-stream;base64,"
		}
	]
}
