{
	"asset":{
		"generator":"Khronos glTF Blender I/O v3.6.27",
		"version":"2.0"
	},
	"extensionsUsed":[
		"KHR_materials_specular",
		"KHR_materials_ior"
	],
	"scene":0,
	"scenes":[
		{
			"name":"Scene",
			"nodes":[
				0
			]
		}
	],
	"nodes":[
		{
			"mesh":0,
			"name":"coral",
			"rotation":[
				0.7071068286895752,
				0,
				0,
				0.7071068286895752
			]
		}
	],
	"materials":[
		{
			"doubleSided":true,
			"extensions":{
				"KHR_materials_specular":{
					"specularColorFactor":[
						1.897086119821904,
						1.897086119821904,
						1.897086119821904
					]
				},
				"KHR_materials_ior":{
					"ior":1.4500000476837158
				}
			},
			"name":"None",
			"pbrMetallicRoughness":{
				"baseColorTexture":{
					"index":0
				},
				"metallicFactor":0
			}
		}
	],
	"meshes":[
		{
			"name":"coral",
			"primitives":[
				{
					"attributes":{
						"POSITION":0,
						"NORMAL":1,
						"TEXCOORD_0":2
					},
					"indices":3,
					"material":0
				}
			]
		}
	],
	"textures":[
		{
			"sampler":0,
			"source":0
		}
	],
	"images":[
		{
			"bufferView":4,
			"mimeType":"image/png",
			"name":"PUSHILIN_coral"
		}
	],
	"accessors":[
		{
			"bufferView":0,
			"componentType":5126,
			"count":1651,
			"max":[
				0.6830379962921143,
				0.7636110186576843,
				0.5542399883270264
			],
			"min":[
				-0.6453030109405518,
				-0.8452320098876953,
				-1.0309779644012451
			],
			"type":"VEC3"
		},
		{
			"bufferView":1,
			"componentType":5126,
			"count":1651,
			"type":"VEC3"
		},
		{
			"bufferView":2,
			"componentType":5126,
			"count":1651,
			"type":"VEC2"
		},
		{
			"bufferView":3,
			"componentType":5123,
			"count":2457,
			"type":"SCALAR"
		}
	],
	"bufferViews":[
		{
			"buffer":0,
			"byteLength":19812,
			"byteOffset":0,
			"target":34962
		},
		{
			"buffer":0,
			"byteLength":19812,
			"byteOffset":19812,
			"target":34962
		},
		{
			"buffer":0,
			"byteLength":13208,
			"byteOffset":39624,
			"target":34962
		},
		{
			"buffer":0,
			"byteLength":4914,
			"byteOffset":52832,
			"target":34963
		},
		{
			"buffer":0,
			"byteLength":253175,
			"byteOffset":57748
		}
	],
	"samplers":[
		{
			"magFilter":9729,
			"minFilter":9987
		}
	],
	"buffers":[
		{
			"byteLength":310924,
			"uri":"data:application/octet-stream;base64,"
		}
	]
}
